<?xml version="1.0" standalone="no"?>
 <!DOCTYPE svg PUBLIC "-//W3C//DTD SVG 1.1//EN" 
 "http://www.w3.org/Graphics/SVG/1.1/DTD/svg11.dtd"> 
<svg xmlns="http://www.w3.org/2000/svg" version="1.1" 
    width="41.9989cm" height="29.7002cm" viewBox="0 0 165350 116930 ">
<title>SVG Picture created as adic-motor-controller-B_Cu.svg date 2014/02/11 10:18:54 </title>
  <desc>Picture generated by PCBNEW </desc>
<g style="fill:#000000; fill-opacity:1;stroke:#000000; stroke-opacity:1;
stroke-linecap:round; stroke-linejoin:round; "
 transform="translate(0 0) scale(1 1)">
</g>
<g style="fill:#000000; fill-opacity:0.0; 
stroke:#000000; stroke-width:98.4252; stroke-opacity:1; 
stroke-linecap:round; stroke-linejoin:round;">
<path d="M27529 86820
L27529 87214
" />
<path d="M27529 87026
L27754 87026
" />
<path d="M27754 86820
L27754 87214
" />
<path d="M27923 86839
L27979 86820
L28073 86820
L28110 86839
L28129 86858
L28148 86895
L28148 86933
L28129 86970
L28110 86989
L28073 87008
L27998 87026
L27960 87045
L27942 87064
L27923 87101
L27923 87139
L27942 87176
L27960 87195
L27998 87214
L28092 87214
L28148 87195
" />
<path d="M28616 86820
L28616 87214
" />
<path d="M28841 86820
L28673 87045
" />
<path d="M28841 87214
L28616 86989
" />
<path d="M29235 86820
L29104 87008
" />
<path d="M29010 86820
L29010 87214
L29160 87214
L29198 87195
L29216 87176
L29235 87139
L29235 87083
L29216 87045
L29198 87026
L29160 87008
L29010 87008
" />
<path d="M29404 86820
L29404 87214
" />
<path d="M29629 86820
L29460 87045
" />
<path d="M29629 87214
L29404 86989
" />
<path d="M30079 87176
L30098 87195
L30135 87214
L30229 87214
L30266 87195
L30285 87176
L30304 87139
L30304 87101
L30285 87045
L30060 86820
L30304 86820
" />
<path d="M30547 87214
L30585 87214
L30622 87195
L30641 87176
L30660 87139
L30679 87064
L30679 86970
L30660 86895
L30641 86858
L30622 86839
L30585 86820
L30547 86820
L30510 86839
L30491 86858
L30472 86895
L30454 86970
L30454 87064
L30472 87139
L30491 87176
L30510 87195
L30547 87214
" />
<path d="M31054 86820
L30829 86820
" />
<path d="M30941 86820
L30941 87214
L30904 87158
L30866 87120
L30829 87101
" />
<path d="M31391 87083
L31391 86820
" />
<path d="M31297 87233
L31204 86951
L31447 86951
" />
</g>
<g style="fill:#000000; fill-opacity:0.0; 
stroke:#000000; stroke-width:39.3701; stroke-opacity:1; 
stroke-linecap:round; stroke-linejoin:round;">
</g>
<g style="fill:#000000; fill-opacity:1.0; 
stroke:#000000; stroke-width:39.3701; stroke-opacity:1; 
stroke-linecap:round; stroke-linejoin:round;">
<polyline style="fill-rule:evenodd;"
points="24244,95610
24655,95610
24655,95449
24244,95449
24244,95610
" /> 
<polyline style="fill-rule:evenodd;"
points="24244,95110
24655,95110
24655,94949
24244,94949
24244,95110
" /> 
<polyline style="fill-rule:evenodd;"
points="24244,94610
24655,94610
24655,94449
24244,94449
24244,94610
" /> 
<polyline style="fill-rule:evenodd;"
points="24244,94110
24655,94110
24655,93949
24244,93949
24244,94110
" /> 
<polyline style="fill-rule:evenodd;"
points="24244,93610
24655,93610
24655,93449
24244,93449
24244,93610
" /> 
<polyline style="fill-rule:evenodd;"
points="24244,93110
24655,93110
24655,92949
24244,92949
24244,93110
" /> 
<polyline style="fill-rule:evenodd;"
points="24244,92610
24655,92610
24655,92449
24244,92449
24244,92610
" /> 
<polyline style="fill-rule:evenodd;"
points="22144,92610
22555,92610
22555,92449
22144,92449
22144,92610
" /> 
<polyline style="fill-rule:evenodd;"
points="22144,93110
22555,93110
22555,92949
22144,92949
22144,93110
" /> 
<polyline style="fill-rule:evenodd;"
points="22144,93610
22555,93610
22555,93449
22144,93449
22144,93610
" /> 
<polyline style="fill-rule:evenodd;"
points="22144,94110
22555,94110
22555,93949
22144,93949
22144,94110
" /> 
<polyline style="fill-rule:evenodd;"
points="22144,94610
22555,94610
22555,94449
22144,94449
22144,94610
" /> 
<polyline style="fill-rule:evenodd;"
points="22144,95110
22555,95110
22555,94949
22144,94949
22144,95110
" /> 
<polyline style="fill-rule:evenodd;"
points="22144,95610
22555,95610
22555,95449
22144,95449
22144,95610
" /> 
<polyline style="fill-rule:evenodd;"
points="24155,96799
23644,96799
23644,97110
24155,97110
24155,96799
" /> 
<polyline style="fill-rule:evenodd;"
points="24155,97549
23644,97549
23644,97860
24155,97860
24155,97549
" /> 
<polyline style="fill-rule:evenodd;"
points="27155,97499
26644,97499
26644,97810
27155,97810
27155,97499
" /> 
<polyline style="fill-rule:evenodd;"
points="27155,98249
26644,98249
26644,98560
27155,98560
27155,98249
" /> 
<polyline style="fill-rule:evenodd;"
points="25269,93874
25269,94385
25580,94385
25580,93874
25269,93874
" /> 
<polyline style="fill-rule:evenodd;"
points="26019,93874
26019,94385
26330,94385
26330,93874
26019,93874
" /> 
<polyline style="fill-rule:evenodd;"
points="26019,94674
26019,95185
26330,95185
26330,94674
26019,94674
" /> 
<polyline style="fill-rule:evenodd;"
points="26769,94674
26769,95185
27080,95185
27080,94674
26769,94674
" /> 
<polyline style="fill-rule:evenodd;"
points="25569,96574
25569,97085
25880,97085
25880,96574
25569,96574
" /> 
<polyline style="fill-rule:evenodd;"
points="26319,96574
26319,97085
26630,97085
26630,96574
26319,96574
" /> 
<polyline style="fill-rule:evenodd;"
points="26644,94260
27155,94260
27155,93949
26644,93949
26644,94260
" /> 
<polyline style="fill-rule:evenodd;"
points="26644,93510
27155,93510
27155,93199
26644,93199
26644,93510
" /> 
<polyline style="fill-rule:evenodd;"
points="26494,90560
27005,90560
27005,90249
26494,90249
26494,90560
" /> 
<polyline style="fill-rule:evenodd;"
points="26494,89810
27005,89810
27005,89499
26494,89499
26494,89810
" /> 
<polyline style="fill-rule:evenodd;"
points="25619,92274
25619,92785
25930,92785
25930,92274
25619,92274
" /> 
<polyline style="fill-rule:evenodd;"
points="26369,92274
26369,92785
26680,92785
26680,92274
26369,92274
" /> 
<polyline style="fill-rule:evenodd;"
points="25619,91274
25619,91785
25930,91785
25930,91274
25619,91274
" /> 
<polyline style="fill-rule:evenodd;"
points="26369,91274
26369,91785
26680,91785
26680,91274
26369,91274
" /> 
<polyline style="fill-rule:evenodd;"
points="25880,97935
25880,97424
25569,97424
25569,97935
25880,97935
" /> 
<polyline style="fill-rule:evenodd;"
points="25130,97935
25130,97424
24819,97424
24819,97935
25130,97935
" /> 
<polyline style="fill-rule:evenodd;"
points="22080,98285
22080,97774
21769,97774
21769,98285
22080,98285
" /> 
<polyline style="fill-rule:evenodd;"
points="21330,98285
21330,97774
21019,97774
21019,98285
21330,98285
" /> 
<polyline style="fill-rule:evenodd;"
points="23155,97149
22644,97149
22644,97460
23155,97460
23155,97149
" /> 
<polyline style="fill-rule:evenodd;"
points="23155,97899
22644,97899
22644,98210
23155,98210
23155,97899
" /> 
<polyline style="fill-rule:evenodd;"
points="26580,88835
26580,88324
26269,88324
26269,88835
26580,88835
" /> 
<polyline style="fill-rule:evenodd;"
points="25830,88835
25830,88324
25519,88324
25519,88835
25830,88835
" /> 
<polyline style="fill-rule:evenodd;"
points="25155,88049
24644,88049
24644,88360
25155,88360
25155,88049
" /> 
<polyline style="fill-rule:evenodd;"
points="25155,88799
24644,88799
24644,89110
25155,89110
25155,88799
" /> 
<polyline style="fill-rule:evenodd;"
points="25830,90585
25830,90074
25519,90074
25519,90585
25830,90585
" /> 
<polyline style="fill-rule:evenodd;"
points="25080,90585
25080,90074
24769,90074
24769,90585
25080,90585
" /> 
<polyline style="fill-rule:evenodd;"
points="23080,90935
23080,90424
22769,90424
22769,90935
23080,90935
" /> 
<polyline style="fill-rule:evenodd;"
points="22330,90935
22330,90424
22019,90424
22019,90935
22330,90935
" /> 
<polyline style="fill-rule:evenodd;"
points="24919,101110
25480,101110
25480,100549
24919,100549
24919,101110
" /> 
<circle cx="25200" cy="99830" r="280.315" /> 
<circle cx="25200" cy="98830" r="280.315" /> 
<polyline style="fill-rule:evenodd;"
points="30530,99410
30530,98849
29969,98849
29969,99410
30530,99410
" /> 
<circle cx="29250" cy="99130" r="280.315" /> 
<circle cx="28250" cy="99130" r="280.315" /> 
<polyline style="fill-rule:evenodd;"
points="19580,86849
19019,86849
19019,87410
19580,87410
19580,86849
" /> 
<circle cx="19300" cy="88130" r="280.315" /> 
<circle cx="19300" cy="89130" r="280.315" /> 
<polyline style="fill-rule:evenodd;"
points="29980,89560
29980,88999
29419,88999
29419,89560
29980,89560
" /> 
<circle cx="28700" cy="89280" r="280.315" /> 
<circle cx="27700" cy="89280" r="280.315" /> 
<polyline style="fill-rule:evenodd;"
points="19519,96560
20080,96560
20080,95999
19519,95999
19519,96560
" /> 
<circle cx="19800" cy="95280" r="280.315" /> 
<circle cx="19800" cy="94280" r="280.315" /> 
<circle cx="19800" cy="93280" r="280.315" /> 
<circle cx="19800" cy="92280" r="280.315" /> 
<circle cx="19800" cy="91280" r="280.315" /> 
<polyline style="fill-rule:evenodd;"
points="27444,93785
27955,93785
27955,93274
27444,93274
27444,93785
" /> 
<circle cx="27700" cy="92530" r="255.315" /> 
<circle cx="27700" cy="91530" r="255.315" /> 
<circle cx="27700" cy="90530" r="255.315" /> 
<circle cx="30700" cy="90530" r="255.315" /> 
<circle cx="30700" cy="91530" r="255.315" /> 
<circle cx="30700" cy="92530" r="255.315" /> 
<circle cx="30700" cy="93530" r="255.315" /> 
<polyline style="fill-rule:evenodd;"
points="27444,98035
27955,98035
27955,97524
27444,97524
27444,98035
" /> 
<circle cx="27700" cy="96780" r="255.315" /> 
<circle cx="27700" cy="95780" r="255.315" /> 
<circle cx="27700" cy="94780" r="255.315" /> 
<circle cx="30700" cy="94780" r="255.315" /> 
<circle cx="30700" cy="95780" r="255.315" /> 
<circle cx="30700" cy="96780" r="255.315" /> 
<circle cx="30700" cy="97780" r="255.315" /> 
<polyline style="fill-rule:evenodd;"
points="24155,89935
24155,89424
23644,89424
23644,89935
24155,89935
" /> 
<circle cx="22900" cy="89680" r="255.315" /> 
<circle cx="21900" cy="89680" r="255.315" /> 
<circle cx="20900" cy="89680" r="255.315" /> 
<circle cx="20900" cy="86680" r="255.315" /> 
<circle cx="21900" cy="86680" r="255.315" /> 
<circle cx="22900" cy="86680" r="255.315" /> 
<circle cx="23900" cy="86680" r="255.315" /> 
<polyline style="fill-rule:evenodd;"
points="20644,98574
20644,99085
21155,99085
21155,98574
20644,98574
" /> 
<circle cx="21900" cy="98830" r="255.315" /> 
<circle cx="22900" cy="98830" r="255.315" /> 
<circle cx="23900" cy="98830" r="255.315" /> 
<circle cx="23900" cy="101830" r="255.315" /> 
<circle cx="22900" cy="101830" r="255.315" /> 
<circle cx="21900" cy="101830" r="255.315" /> 
<circle cx="20900" cy="101830" r="255.315" /> 
<polyline style="fill-rule:evenodd;"
points="18255,88974
17744,88974
17744,89485
18255,89485
18255,88974
" /> 
<circle cx="18000" cy="93230" r="255.315" /> 
<circle cx="18000" cy="96280" r="255.315" /> 
<circle cx="18000" cy="94280" r="255.315" /> 
<circle cx="24200" cy="91280" r="155.315" /> 
<circle cx="22200" cy="91280" r="155.315" /> 
<circle cx="22200" cy="91730" r="155.315" /> 
<circle cx="24200" cy="91730" r="155.315" /> 
</g>
<g style="fill:#000000; fill-opacity:1.0; 
stroke:#000000; stroke-width:100; stroke-opacity:1; 
stroke-linecap:round; stroke-linejoin:round;">
<path d="M31350 94130
L31350 89180
" />
<path d="M26575 88430
L26425 88580
" />
<path d="M30600 88430
L26575 88430
" />
<path d="M31350 89180
L30600 88430
" />
<path d="M26900 94105
L31325 94105
" />
<path d="M25725 98255
L25725 97680
" />
<path d="M27350 99880
L25725 98255
" />
<path d="M30450 99880
L27350 99880
" />
<path d="M31350 98980
L30450 99880
" />
<path d="M31350 94130
L31350 98980
" />
<path d="M31325 94105
L31350 94130
" />
<path d="M25725 97680
L25725 96830
" />
<path d="M18000 93230
L18000 94280
" />
<path d="M19800 95280
L19000 95280
" />
<path d="M19000 95280
L18000 94280
" />
<path d="M22900 96930
L22900 97305
" />
<path d="M22350 94530
L22500 94530
" />
<path d="M22900 94930
L22900 96930
" />
<path d="M22900 96930
L22900 96955
" />
<path d="M22500 94530
L22900 94930
" />
<path d="M19800 91280
L22200 91280
" />
<path d="M24800 93030
L24450 93030
" />
<path d="M24850 92980
L24800 93030
" />
<path d="M24850 91680
L24850 92980
" />
<path d="M24450 91280
L24850 91680
" />
<path d="M24200 91280
L24450 91280
" />
<path d="M22350 95530
L22350 96430
" />
<path d="M20150 96630
L19800 96280
" />
<path d="M22150 96630
L20150 96630
" />
<path d="M22350 96430
L22150 96630
" />
<path d="M19800 96280
L18000 96280
" />
<path d="M18000 96280
L17850 96280
" />
<path d="M17850 96280
L17500 95930
" />
<path d="M17500 95930
L17500 89730
" />
<path d="M17500 89730
L18000 89230
" />
<path d="M25200 99830
L21900 99830
" />
<path d="M21900 99830
L20900 98830
" />
<path d="M20900 98830
L20900 98305
" />
<path d="M20900 98305
L21175 98030
" />
<path d="M26900 93355
L26900 92905
" />
<path d="M26900 92905
L26525 92530
" />
<path d="M26525 92530
L27150 92530
" />
<path d="M27150 92530
L27700 92530
" />
<path d="M26525 91530
L26525 90630
" />
<path d="M26525 90630
L26750 90405
" />
<path d="M26525 91530
L26850 91530
" />
<path d="M26850 91530
L27700 91530
" />
<path d="M28700 89280
L28700 92530
" />
<path d="M28700 92530
L27700 93530
" />
<path d="M26750 89655
L26750 89430
" />
<path d="M28100 88680
L28700 89280
" />
<path d="M27500 88680
L28100 88680
" />
<path d="M26750 89430
L27500 88680
" />
<path d="M26175 94130
L26175 94205
" />
<path d="M26550 94580
L26550 95630
" />
<path d="M26175 94205
L26550 94580
" />
<path d="M26550 95630
L26550 96805
" />
<path d="M26550 96805
L26525 96830
" />
<path d="M26550 95630
L27700 96780
" />
<path d="M26900 97655
L26900 97630
" />
<path d="M28200 96280
L27700 95780
" />
<path d="M28200 97080
L28200 96280
" />
<path d="M28000 97280
L28200 97080
" />
<path d="M27250 97280
L28000 97280
" />
<path d="M26900 97630
L27250 97280
" />
<path d="M26925 94930
L26925 95005
" />
<path d="M26925 95005
L27700 95780
" />
<path d="M26900 98405
L27075 98405
" />
<path d="M27075 98405
L27700 97780
" />
<path d="M27700 97780
L28500 97780
" />
<path d="M29250 98530
L29250 99130
" />
<path d="M28500 97780
L29250 98530
" />
<path d="M19300 87130
L23450 87130
" />
<path d="M23450 87130
L23900 86680
" />
<path d="M23900 96955
L23900 95030
" />
<path d="M23900 95030
L24450 95030
" />
<path d="M20900 89680
L19850 89680
" />
<path d="M19850 89680
L19300 89130
" />
<path d="M28250 99130
L28350 99130
" />
<path d="M29750 96830
L27700 94780
" />
<path d="M29750 99530
L29750 96830
" />
<path d="M29650 99630
L29750 99530
" />
<path d="M28850 99630
L29650 99630
" />
<path d="M28350 99130
L28850 99630
" />
<path d="M30250 99130
L30250 98230
" />
<path d="M30250 98230
L30700 97780
" />
<path d="M29700 89280
L29700 92530
" />
<path d="M29700 92530
L30700 93530
" />
<path d="M27700 89280
L27700 90530
" />
<path d="M24450 94530
L25025 94530
" />
<path d="M25025 94530
L25425 94130
" />
<path d="M26175 94930
L25050 96055
" />
<path d="M22850 94030
L22350 94030
" />
<path d="M23400 94580
L22850 94030
" />
<path d="M23400 97180
L23400 94580
" />
<path d="M23550 97330
L23400 97180
" />
<path d="M24400 97330
L23550 97330
" />
<path d="M25050 96680
L24400 97330
" />
<path d="M25050 96055
L25050 96680
" />
<path d="M25200 100830
L21900 100830
" />
<path d="M21900 100830
L20900 101830
" />
<path d="M23900 98830
L25200 98830
" />
<path d="M22350 93530
L22850 93530
" />
<path d="M25175 90930
L25775 91530
" />
<path d="M23950 90930
L25175 90930
" />
<path d="M23700 91180
L23950 90930
" />
<path d="M23700 92680
L23700 91180
" />
<path d="M22850 93530
L23700 92680
" />
<path d="M21900 89680
L21900 90405
" />
<path d="M21900 90405
L22175 90680
" />
<path d="M24900 88205
L23375 88205
" />
<path d="M23375 88205
L21900 89680
" />
<path d="M24925 90330
L23550 90330
" />
<path d="M23550 90330
L22900 89680
" />
<path d="M25675 88580
L23950 88580
" />
<path d="M23950 88580
L22900 89630
" />
<path d="M22900 89630
L22900 89680
" />
<path d="M21925 98030
L22875 98030
" />
<path d="M22875 98030
L22900 98055
" />
<path d="M22900 98830
L22900 98055
" />
<path d="M23900 97705
L24950 97705
" />
<path d="M24950 97705
L24975 97680
" />
<path d="M21900 98830
L21850 98830
" />
<path d="M22475 97705
L23900 97705
" />
<path d="M22250 97480
L22475 97705
" />
<path d="M21650 97480
L22250 97480
" />
<path d="M21550 97580
L21650 97480
" />
<path d="M21550 98530
L21550 97580
" />
<path d="M21850 98830
L21550 98530
" />
<path d="M23900 89680
L25400 89680
" />
<path d="M19700 87730
L19300 88130
" />
<path d="M25600 87730
L19700 87730
" />
<path d="M26050 88180
L25600 87730
" />
<path d="M26050 89030
L26050 88180
" />
<path d="M25400 89680
L26050 89030
" />
<path d="M24900 88955
L24625 88955
" />
<path d="M24625 88955
L23900 89680
" />
<path d="M24450 94030
L24700 94030
" />
<path d="M25775 92955
L25775 92530
" />
<path d="M24700 94030
L25775 92955
" />
<path d="M22925 90680
L22925 92855
" />
<path d="M22750 93030
L22350 93030
" />
<path d="M22925 92855
L22750 93030
" />
<path d="M24450 93530
L24700 93530
" />
<path d="M26150 90805
L25675 90330
" />
<path d="M26150 91880
L26150 90805
" />
<path d="M26000 92030
L26150 91880
" />
<path d="M25400 92030
L26000 92030
" />
<path d="M25200 92230
L25400 92030
" />
<path d="M25200 93030
L25200 92230
" />
<path d="M24700 93530
L25200 93030
" />
<path d="M19800 94280
L20300 94280
" />
<path d="M21050 95030
L22350 95030
" />
<path d="M20300 94280
L21050 95030
" />
<path d="M19800 93280
L20400 93280
" />
<path d="M21150 92530
L22350 92530
" />
<path d="M20400 93280
L21150 92530
" />
<path d="M24450 92530
L24450 91980
" />
<path d="M20450 92280
L19800 92280
" />
<path d="M20950 91780
L20450 92280
" />
<path d="M22150 91780
L20950 91780
" />
<path d="M22200 91730
L22150 91780
" />
<path d="M24450 91980
L24200 91730
" />
</g>
<g style="fill:#000000; fill-opacity:1.0; 
stroke:#000000; stroke-width:39.3701; stroke-opacity:1; 
stroke-linecap:round; stroke-linejoin:round;">
<polyline style="fill-rule:evenodd;"
points="32050,86030
31724,86030
31724,86483
31724,87574
31146,87574
31146,90618
31146,91618
31146,92618
31146,93618
31146,94868
31146,95868
31146,96868
31146,97868
31078,98032
30953,98158
30789,98226
30611,98226
30579,98213
30471,98321
30471,98658
30583,98658
30646,98684
30695,98732
30721,98795
30721,98863
30721,99463
30695,99526
30647,99575
30584,99601
30516,99601
29957,99601
29954,99614
29906,99686
29806,99786
29734,99834
29650,99851
28850,99851
28765,99834
28693,99786
28460,99553
28344,99601
28156,99601
27983,99529
27850,99397
27778,99224
27778,99036
27850,98863
27982,98730
28155,98658
28343,98658
28516,98730
28649,98862
28721,99035
28721,99188
28794,99261
28778,99224
28778,99036
28850,98863
28982,98730
29028,98711
29028,98621
28408,98001
28146,98001
28146,98088
28120,98151
28072,98200
28009,98226
27941,98226
27566,98226
27346,98446
27346,98613
27320,98676
27272,98725
27209,98751
27141,98751
26591,98751
26528,98725
26479,98677
26453,98614
26453,98546
26453,98196
26479,98133
26527,98084
26590,98058
26658,98058
27108,98058
27165,98001
27141,98001
26591,98001
26528,97975
26479,97927
26453,97864
26453,97796
26453,97446
26479,97383
26527,97334
26590,97308
26658,97308
26908,97308
27093,97123
27093,97123
27165,97075
27165,97075
27249,97058
27250,97058
27347,97058
27321,97033
27253,96869
27253,96691
27266,96659
26771,96164
26771,96434
26795,96457
26821,96520
26821,96588
26821,97138
26795,97201
26747,97250
26684,97276
26616,97276
26266,97276
26203,97250
26154,97202
26142,97172
26111,97246
26103,97255
26111,97263
26149,97355
26150,97454
26150,97905
26149,98004
26111,98096
26041,98167
25949,98205
25837,98205
25775,98142
25775,97730
26087,97730
26150,97792
26150,97905
26150,97454
26150,97567
26087,97630
25775,97630
25775,97292
25775,97217
25775,96880
25782,96880
25782,96780
25775,96780
25775,96367
25837,96305
25949,96304
26041,96342
26111,96413
26142,96487
26154,96458
26202,96409
26265,96383
26328,96383
26328,95630
26328,95376
26316,95376
26041,95376
25675,95742
25675,96367
25675,96780
25362,96780
25300,96717
25299,96604
25300,96505
25338,96413
25408,96342
25500,96304
25612,96305
25675,96367
25675,95742
25271,96146
25271,96680
25254,96764
25206,96836
24809,97233
24833,97233
25183,97233
25246,97259
25295,97307
25307,97337
25338,97263
25346,97255
25338,97246
25300,97154
25299,97055
25300,96942
25362,96880
25675,96880
25675,97217
25675,97292
25675,97630
25667,97630
25667,97730
25675,97730
25675,98142
25671,98146
25671,98923
25599,99096
25467,99229
25294,99301
25106,99301
24933,99229
24800,99097
24781,99051
24291,99051
24278,99082
24153,99208
23989,99276
23811,99276
23647,99208
23521,99083
23453,98919
23453,98741
23521,98577
23646,98451
23810,98383
23988,98383
24152,98451
24278,98576
24291,98608
24781,98608
24800,98563
24932,98430
25105,98358
25293,98358
25466,98430
25599,98562
25671,98735
25671,98923
25671,98146
25612,98205
25500,98205
25408,98167
25338,98096
25307,98022
25295,98051
25247,98100
25184,98126
25116,98126
24766,98126
24703,98100
24654,98052
24628,97989
24628,97926
24341,97926
24320,97976
24272,98025
24209,98051
24141,98051
23591,98051
23528,98025
23479,97977
23458,97926
23346,97926
23346,98263
23320,98326
23272,98375
23209,98401
23141,98401
23121,98401
23121,98438
23152,98451
23278,98576
23346,98740
23346,98918
23278,99082
23153,99208
22989,99276
22811,99276
22647,99208
22521,99083
22453,98919
22453,98741
22521,98577
22646,98451
22678,98438
22678,98401
22591,98401
22528,98375
22479,98327
22453,98264
22453,98251
22271,98251
22271,98338
22245,98401
22197,98450
22164,98463
22278,98576
22346,98740
22346,98918
22278,99082
22153,99208
21989,99276
21811,99276
21647,99208
21521,99083
21453,98919
21453,98746
21393,98686
21346,98615
21346,98963
21991,99608
24781,99608
24800,99563
24932,99430
25105,99358
25293,99358
25466,99430
25599,99562
25671,99735
25671,99923
25671,99923
25671,100563
25671,101163
25645,101226
25597,101275
25534,101301
25466,101301
24866,101301
24803,101275
24754,101227
24728,101164
24728,101096
24728,101051
24346,101051
24346,101918
24278,102082
24153,102208
23989,102276
23811,102276
23647,102208
23521,102083
23453,101919
23453,101741
23521,101577
23646,101451
23810,101383
23988,101383
24152,101451
24278,101576
24346,101740
24346,101918
24346,101051
23346,101051
23346,101918
23278,102082
23153,102208
22989,102276
22811,102276
22647,102208
22521,102083
22453,101919
22453,101741
22521,101577
22646,101451
22810,101383
22988,101383
23152,101451
23278,101576
23346,101740
23346,101918
23346,101051
22346,101051
22346,101918
22278,102082
22153,102208
21989,102276
21811,102276
21647,102208
21521,102083
21453,101919
21453,101741
21521,101577
21646,101451
21810,101383
21988,101383
22152,101451
22278,101576
22346,101740
22346,101918
22346,101051
21991,101051
21333,101709
21346,101740
21346,101918
21278,102082
21153,102208
20989,102276
20811,102276
20647,102208
20521,102083
20453,101919
20453,101741
20521,101577
20646,101451
20810,101383
20988,101383
21020,101396
21743,100673
21815,100625
21900,100608
24728,100608
24728,100496
24754,100433
24802,100384
24865,100358
24933,100358
25533,100358
25596,100384
25645,100432
25671,100495
25671,100563
25671,99923
25599,100096
25467,100229
25294,100301
25106,100301
24933,100229
24800,100097
24781,100051
21900,100051
21815,100034
21743,99986
21033,99276
20591,99276
20528,99250
20479,99202
20453,99139
20453,99071
20453,98521
20479,98458
20527,98409
20590,98383
20658,98383
20678,98383
20678,98305
20695,98220
20743,98148
20828,98063
20828,97721
20854,97658
20902,97609
20965,97583
21033,97583
21328,97583
21328,97580
21345,97495
21393,97423
21493,97323
21565,97275
21650,97258
22250,97258
22334,97275
22406,97323
22453,97370
22453,97096
22479,97033
22527,96984
22590,96958
22658,96958
22678,96958
22678,96955
22678,96930
22678,95768
22672,95775
22609,95801
22571,95801
22571,96430
22554,96514
22506,96586
22306,96786
22234,96834
22150,96851
20150,96851
20065,96834
19993,96786
19993,96786
19993,96786
19958,96751
19466,96751
19403,96725
19354,96677
19328,96614
19328,96546
19328,96501
18391,96501
18378,96532
18253,96658
18089,96726
17911,96726
17747,96658
17621,96533
17553,96369
17553,96296
17343,96086
17295,96014
17278,95930
17278,89730
17295,89645
17343,89573
17553,89363
17553,88921
17579,88858
17627,88809
17690,88783
17758,88783
18308,88783
18371,88809
18420,88857
18446,88920
18446,88988
18446,89538
18420,89601
18372,89650
18309,89676
18241,89676
17866,89676
17721,89821
17721,92792
17727,92769
17924,92700
18132,92711
18272,92769
18297,92862
18000,93159
17994,93153
17923,93224
17929,93230
17923,93235
17994,93306
18000,93300
18297,93597
18272,93690
18079,93758
18132,93761
18272,93819
18297,93912
18000,94209
17994,94203
17923,94274
17929,94280
17923,94285
17994,94356
18000,94350
18297,94647
18272,94740
18075,94809
17867,94798
17727,94740
17721,94717
17721,95838
17773,95890
17910,95833
18088,95833
18252,95901
18378,96026
18391,96058
19328,96058
19328,95946
19354,95883
19402,95834
19465,95808
19533,95808
19626,95808
19512,95761
19484,95665
19800,95350
20115,95665
20087,95761
19954,95808
20133,95808
20196,95834
20245,95882
20271,95945
20271,96013
20271,96408
22058,96408
22128,96338
22128,95801
22091,95801
22028,95775
21979,95727
21953,95664
21953,95596
21953,95396
21979,95333
22027,95284
22039,95280
22028,95275
22004,95251
21050,95251
20965,95234
20893,95186
20893,95186
20893,95186
20354,94647
20354,95198
20343,95416
20281,95567
20185,95595
19870,95280
20185,94964
20281,94992
20354,95198
20354,94647
20215,94508
20199,94546
20067,94679
19931,94735
19936,94736
20087,94798
20115,94894
19800,95209
19729,95138
19729,95280
19414,95595
19318,95567
19245,95361
19256,95143
19318,94992
19414,94964
19729,95280
19729,95138
19484,94894
19512,94798
19678,94739
19533,94679
19400,94547
19328,94374
19328,94186
19400,94013
19532,93880
19705,93808
19893,93808
20066,93880
20199,94012
20218,94058
20300,94058
20384,94075
20456,94123
21141,94808
22004,94808
22027,94784
22039,94780
22028,94775
21979,94727
21953,94664
21953,94596
21953,94396
21979,94333
22027,94284
22039,94280
22028,94275
21979,94227
21953,94164
21953,94096
21953,93896
21979,93833
22027,93784
22039,93780
22028,93775
21979,93727
21953,93664
21953,93596
21953,93396
21979,93333
22027,93284
22039,93280
22028,93275
21979,93227
21953,93164
21953,93096
21953,92896
21979,92833
22027,92784
22039,92780
22028,92775
22004,92751
21241,92751
20556,93436
20484,93484
20400,93501
20218,93501
20199,93546
20067,93679
19894,93751
19706,93751
19533,93679
19400,93547
19328,93374
19328,93186
19400,93013
19532,92880
19705,92808
19893,92808
20066,92880
20199,93012
20218,93058
20308,93058
20993,92373
20993,92373
21065,92325
21065,92325
21149,92308
21150,92308
22004,92308
22027,92284
22090,92258
22158,92258
22608,92258
22671,92284
22703,92316
22703,91121
22653,91100
22604,91052
22578,90989
22578,90921
22578,90371
22604,90308
22652,90259
22715,90233
22783,90233
23133,90233
23145,90238
23020,90113
22989,90126
22811,90126
22647,90058
22521,89933
22453,89769
22453,89591
22521,89427
22646,89301
22810,89233
22983,89233
23790,88426
23466,88426
22333,89559
22346,89590
22346,89768
22278,89932
22153,90058
22121,90071
22121,90233
22383,90233
22446,90259
22495,90307
22521,90370
22521,90438
22521,90988
22495,91051
22478,91068
22493,91083
22546,91210
22546,91348
22493,91475
22464,91504
22493,91533
22546,91660
22546,91798
22493,91925
22396,92023
22269,92076
22131,92076
22004,92023
21981,92001
21041,92001
20606,92436
20534,92484
20450,92501
20218,92501
20199,92546
20067,92679
19894,92751
19706,92751
19533,92679
19400,92547
19328,92374
19328,92186
19400,92013
19532,91880
19705,91808
19893,91808
20066,91880
20199,92012
20218,92058
20358,92058
20793,91623
20865,91575
20950,91558
21896,91558
21906,91534
21935,91505
21931,91501
20218,91501
20199,91546
20067,91679
19894,91751
19706,91751
19533,91679
19400,91547
19328,91374
19328,91186
19400,91013
19532,90880
19705,90808
19893,90808
20066,90880
20199,91012
20218,91058
21861,91058
21854,91052
21828,90989
21828,90921
21828,90646
21743,90561
21695,90489
21678,90405
21678,90071
21647,90058
21521,89933
21453,89769
21453,89591
21521,89427
21646,89301
21810,89233
21988,89233
22020,89246
23218,88048
23290,88000
23375,87983
24458,87983
24472,87951
21346,87951
21346,89768
21278,89932
21153,90058
20989,90126
20811,90126
20647,90058
20521,89933
20508,89901
19850,89901
19765,89884
19693,89836
19439,89582
19394,89601
19206,89601
19033,89529
18900,89397
18828,89224
18828,89036
18900,88863
19032,88730
19205,88658
19393,88658
19566,88730
19699,88862
19771,89035
19771,89223
19752,89269
19941,89458
20508,89458
20521,89427
20646,89301
20810,89233
20988,89233
21152,89301
21278,89426
21346,89590
21346,89768
21346,87951
19791,87951
19752,87990
19771,88035
19771,88223
19699,88396
19567,88529
19394,88601
19206,88601
19033,88529
18900,88397
18828,88224
18828,88036
18900,87863
19032,87730
19205,87658
19393,87658
19439,87677
19515,87601
18966,87601
18903,87575
18854,87527
18828,87464
18828,87396
18828,86796
18854,86733
18902,86684
18965,86658
19033,86658
19633,86658
19696,86684
19745,86732
19771,86795
19771,86863
19771,86908
20511,86908
20453,86769
20453,86591
20521,86427
20646,86301
20810,86233
20988,86233
21152,86301
21278,86426
21346,86590
21346,86768
21288,86908
21511,86908
21453,86769
21453,86591
21521,86427
21646,86301
21810,86233
21988,86233
22152,86301
22278,86426
22346,86590
22346,86768
22288,86908
22511,86908
22453,86769
22453,86591
22521,86427
22646,86301
22810,86233
22988,86233
23152,86301
23278,86426
23346,86590
23346,86768
23288,86908
23358,86908
23466,86800
23453,86769
23453,86591
23521,86427
23646,86301
23810,86233
23988,86233
24152,86301
24278,86426
24346,86590
24346,86768
24278,86932
24153,87058
23989,87126
23811,87126
23779,87113
23606,87286
23534,87334
23450,87351
19771,87351
19771,87463
19752,87508
25600,87508
25684,87525
25756,87573
26206,88023
26227,88054
26312,88055
26375,88117
26375,88530
26367,88530
26367,88630
26375,88630
26375,89042
26312,89105
26256,89105
26254,89114
26206,89186
25556,89836
25485,89883
25533,89883
25883,89883
25946,89909
25995,89957
26021,90020
26021,90088
26021,90363
26303,90645
26303,90630
26305,90619
26303,90614
26303,90546
26303,90196
26329,90133
26377,90084
26440,90058
26508,90058
27058,90058
27121,90084
27170,90132
27196,90195
27196,90263
27196,90613
27170,90676
27122,90725
27059,90751
26991,90751
26746,90751
26746,91088
26796,91109
26845,91157
26871,91220
26871,91288
26871,91308
27308,91308
27321,91277
27446,91151
27610,91083
27788,91083
27952,91151
28078,91276
28146,91440
28146,91618
28078,91782
27953,91908
27789,91976
27611,91976
27447,91908
27321,91783
27308,91751
26871,91751
26871,91838
26845,91901
26797,91950
26734,91976
26666,91976
26346,91976
26306,92036
26156,92186
26117,92212
26121,92220
26121,92288
26121,92838
26095,92901
26047,92950
25992,92972
25979,93039
25931,93111
25359,93683
25633,93683
25696,93709
25745,93757
25771,93820
25771,93888
25771,94438
25745,94501
25697,94550
25634,94576
25566,94576
25291,94576
25181,94686
25109,94734
25025,94751
24795,94751
24772,94775
24760,94779
24771,94784
24820,94832
24846,94895
24846,94963
24846,95163
24821,95223
24887,95288
24925,95380
24925,95679
24887,95771
24816,95841
24724,95879
24625,95880
24562,95880
24500,95817
24500,95580
24862,95580
24925,95642
24925,95679
24925,95380
24925,95417
24862,95480
24500,95480
24500,95472
24400,95472
24400,95480
24392,95480
24392,95580
24400,95580
24400,95817
24337,95880
24274,95880
24175,95879
24121,95857
24121,96608
24208,96608
24271,96634
24320,96682
24346,96745
24346,96813
24346,97070
24828,96588
24828,96055
24845,95970
24893,95898
25828,94963
25828,94621
25854,94558
25882,94529
25854,94502
25828,94439
25828,94371
25828,93821
25854,93758
25902,93709
25965,93683
26033,93683
26383,93683
26446,93709
26469,93732
26483,93718
26557,93687
26528,93675
26479,93627
26453,93564
26453,93496
26453,93146
26479,93083
26527,93034
26590,93008
26658,93008
26678,93008
26678,92996
26658,92976
26316,92976
26253,92950
26204,92902
26178,92839
26178,92771
26178,92221
26204,92158
26252,92109
26315,92083
26383,92083
26733,92083
26796,92109
26845,92157
26871,92220
26871,92288
26871,92308
27150,92308
27308,92308
27321,92277
27446,92151
27610,92083
27788,92083
27952,92151
28078,92276
28146,92440
28146,92618
28078,92782
27953,92908
27789,92976
27611,92976
27447,92908
27321,92783
27308,92751
27150,92751
27058,92751
27104,92820
27121,92905
27121,93008
27208,93008
27271,93034
27320,93082
27330,93108
27390,93083
27458,93083
27833,93083
28478,92438
28478,89698
28433,89679
28300,89547
28228,89374
28228,89186
28247,89140
28008,88901
27987,88901
28099,89012
28171,89185
28171,89373
28099,89546
27967,89679
27921,89698
27921,90138
27952,90151
28078,90276
28146,90440
28146,90618
28078,90782
27953,90908
27789,90976
27611,90976
27447,90908
27321,90783
27253,90619
27253,90441
27321,90277
27446,90151
27478,90138
27478,89698
27433,89679
27300,89547
27228,89374
27228,89264
27140,89352
27170,89382
27196,89445
27196,89513
27196,89863
27170,89926
27122,89975
27059,90001
26991,90001
26441,90001
26378,89975
26329,89927
26303,89864
26303,89796
26303,89446
26329,89383
26377,89334
26440,89308
26508,89308
26570,89308
26593,89273
27343,88523
27343,88523
27415,88475
27415,88475
27499,88458
27500,88458
28100,88458
28184,88475
28256,88523
28560,88827
28605,88808
28793,88808
28966,88880
29099,89012
29171,89185
29171,89373
29099,89546
28967,89679
28921,89698
28921,92530
28904,92614
28856,92686
28146,93396
28146,93838
28120,93901
28072,93950
28009,93976
27941,93976
27425,93976
27425,93992
27362,94055
26950,94055
26950,94047
26850,94047
26850,94055
26842,94055
26842,94155
26850,94155
26850,94162
26950,94162
26950,94155
27362,94155
27425,94217
27425,94329
27387,94421
27316,94491
27224,94529
27217,94529
27245,94557
27271,94620
27271,94649
27321,94527
27446,94401
27610,94333
27788,94333
27952,94401
28078,94526
28146,94690
28146,94868
28133,94900
29906,96673
29954,96745
29971,96830
29971,98658
29983,98658
30028,98658
30028,98230
30045,98145
30093,98073
30266,97900
30253,97869
30253,97691
30321,97527
30446,97401
30610,97333
30788,97333
30952,97401
31078,97526
31146,97690
31146,97868
31146,96868
31078,97032
30953,97158
30789,97226
30611,97226
30447,97158
30321,97033
30253,96869
30253,96691
30321,96527
30446,96401
30610,96333
30788,96333
30952,96401
31078,96526
31146,96690
31146,96868
31146,95868
31078,96032
30953,96158
30789,96226
30611,96226
30447,96158
30321,96033
30253,95869
30253,95691
30321,95527
30446,95401
30610,95333
30788,95333
30952,95401
31078,95526
31146,95690
31146,95868
31146,94868
31078,95032
30953,95158
30789,95226
30611,95226
30447,95158
30321,95033
30253,94869
30253,94691
30321,94527
30446,94401
30610,94333
30788,94333
30952,94401
31078,94526
31146,94690
31146,94868
31146,93618
31078,93782
30953,93908
30789,93976
30611,93976
30447,93908
30321,93783
30253,93619
30253,93441
30266,93409
29543,92686
29495,92614
29478,92530
29478,89751
29366,89751
29303,89725
29254,89677
29228,89614
29228,89546
29228,88946
29254,88883
29302,88834
29365,88808
29433,88808
30033,88808
30096,88834
30145,88882
30171,88945
30171,89013
30171,89613
30145,89676
30097,89725
30034,89751
29966,89751
29921,89751
29921,92438
30579,93096
30610,93083
30788,93083
30952,93151
31078,93276
31146,93440
31146,93618
31146,92618
31078,92782
30953,92908
30789,92976
30611,92976
30447,92908
30321,92783
30253,92619
30253,92441
30321,92277
30446,92151
30610,92083
30788,92083
30952,92151
31078,92276
31146,92440
31146,92618
31146,91618
31078,91782
30953,91908
30789,91976
30611,91976
30447,91908
30321,91783
30253,91619
30253,91441
30321,91277
30446,91151
30610,91083
30788,91083
30952,91151
31078,91276
31146,91440
31146,91618
31146,90618
31078,90782
30953,90908
30789,90976
30611,90976
30447,90908
30321,90783
30253,90619
30253,90441
30321,90277
30446,90151
30610,90083
30788,90083
30952,90151
31078,90276
31146,90440
31146,90618
31146,87574
27215,87574
27215,86483
31724,86483
31724,86030
26850,86030
26850,88354
26850,88805
26849,88904
26811,88996
26741,89067
26649,89105
26537,89105
26475,89042
26475,88630
26787,88630
26850,88692
26850,88805
26850,88354
26850,88467
26787,88530
26475,88530
26475,88117
26537,88055
26649,88054
26741,88092
26811,88163
26849,88255
26850,88354
26850,86030
18529,86030
18529,93154
18529,94204
18518,94412
18460,94552
18367,94577
18070,94280
18367,93982
18460,94007
18529,94204
18529,93154
18518,93362
18460,93502
18367,93527
18070,93230
18367,92932
18460,92957
18529,93154
18529,86030
17250,86030
17250,102680
17300,102680
17350,102680
17600,102680
32050,102680
32050,86730
32050,86030
" /> 
</g>
<g style="fill:#000000; fill-opacity:0.0; 
stroke:#000000; stroke-width:100; stroke-opacity:1; 
stroke-linecap:round; stroke-linejoin:round;">
<polyline fill="none;"
points="32050,86030
31724,86030
31724,86483
31724,87574
31146,87574
31146,90618
31146,91618
31146,92618
31146,93618
31146,94868
31146,95868
31146,96868
31146,97868
31078,98032
30953,98158
30789,98226
30611,98226
30579,98213
30471,98321
30471,98658
30583,98658
30646,98684
30695,98732
30721,98795
30721,98863
30721,99463
30695,99526
30647,99575
30584,99601
30516,99601
29957,99601
29954,99614
29906,99686
29806,99786
29734,99834
29650,99851
28850,99851
28765,99834
28693,99786
28460,99553
28344,99601
28156,99601
27983,99529
27850,99397
27778,99224
27778,99036
27850,98863
27982,98730
28155,98658
28343,98658
28516,98730
28649,98862
28721,99035
28721,99188
28794,99261
28778,99224
28778,99036
28850,98863
28982,98730
29028,98711
29028,98621
28408,98001
28146,98001
28146,98088
28120,98151
28072,98200
28009,98226
27941,98226
27566,98226
27346,98446
27346,98613
27320,98676
27272,98725
27209,98751
27141,98751
26591,98751
26528,98725
26479,98677
26453,98614
26453,98546
26453,98196
26479,98133
26527,98084
26590,98058
26658,98058
27108,98058
27165,98001
27141,98001
26591,98001
26528,97975
26479,97927
26453,97864
26453,97796
26453,97446
26479,97383
26527,97334
26590,97308
26658,97308
26908,97308
27093,97123
27093,97123
27165,97075
27165,97075
27249,97058
27250,97058
27347,97058
27321,97033
27253,96869
27253,96691
27266,96659
26771,96164
26771,96434
26795,96457
26821,96520
26821,96588
26821,97138
26795,97201
26747,97250
26684,97276
26616,97276
26266,97276
26203,97250
26154,97202
26142,97172
26111,97246
26103,97255
26111,97263
26149,97355
26150,97454
26150,97905
26149,98004
26111,98096
26041,98167
25949,98205
25837,98205
25775,98142
25775,97730
26087,97730
26150,97792
26150,97905
26150,97454
26150,97567
26087,97630
25775,97630
25775,97292
25775,97217
25775,96880
25782,96880
25782,96780
25775,96780
25775,96367
25837,96305
25949,96304
26041,96342
26111,96413
26142,96487
26154,96458
26202,96409
26265,96383
26328,96383
26328,95630
26328,95376
26316,95376
26041,95376
25675,95742
25675,96367
25675,96780
25362,96780
25300,96717
25299,96604
25300,96505
25338,96413
25408,96342
25500,96304
25612,96305
25675,96367
25675,95742
25271,96146
25271,96680
25254,96764
25206,96836
24809,97233
24833,97233
25183,97233
25246,97259
25295,97307
25307,97337
25338,97263
25346,97255
25338,97246
25300,97154
25299,97055
25300,96942
25362,96880
25675,96880
25675,97217
25675,97292
25675,97630
25667,97630
25667,97730
25675,97730
25675,98142
25671,98146
25671,98923
25599,99096
25467,99229
25294,99301
25106,99301
24933,99229
24800,99097
24781,99051
24291,99051
24278,99082
24153,99208
23989,99276
23811,99276
23647,99208
23521,99083
23453,98919
23453,98741
23521,98577
23646,98451
23810,98383
23988,98383
24152,98451
24278,98576
24291,98608
24781,98608
24800,98563
24932,98430
25105,98358
25293,98358
25466,98430
25599,98562
25671,98735
25671,98923
25671,98146
25612,98205
25500,98205
25408,98167
25338,98096
25307,98022
25295,98051
25247,98100
25184,98126
25116,98126
24766,98126
24703,98100
24654,98052
24628,97989
24628,97926
24341,97926
24320,97976
24272,98025
24209,98051
24141,98051
23591,98051
23528,98025
23479,97977
23458,97926
23346,97926
23346,98263
23320,98326
23272,98375
23209,98401
23141,98401
23121,98401
23121,98438
23152,98451
23278,98576
23346,98740
23346,98918
23278,99082
23153,99208
22989,99276
22811,99276
22647,99208
22521,99083
22453,98919
22453,98741
22521,98577
22646,98451
22678,98438
22678,98401
22591,98401
22528,98375
22479,98327
22453,98264
22453,98251
22271,98251
22271,98338
22245,98401
22197,98450
22164,98463
22278,98576
22346,98740
22346,98918
22278,99082
22153,99208
21989,99276
21811,99276
21647,99208
21521,99083
21453,98919
21453,98746
21393,98686
21346,98615
21346,98963
21991,99608
24781,99608
24800,99563
24932,99430
25105,99358
25293,99358
25466,99430
25599,99562
25671,99735
25671,99923
25671,99923
25671,100563
25671,101163
25645,101226
25597,101275
25534,101301
25466,101301
24866,101301
24803,101275
24754,101227
24728,101164
24728,101096
24728,101051
24346,101051
24346,101918
24278,102082
24153,102208
23989,102276
23811,102276
23647,102208
23521,102083
23453,101919
23453,101741
23521,101577
23646,101451
23810,101383
23988,101383
24152,101451
24278,101576
24346,101740
24346,101918
24346,101051
23346,101051
23346,101918
23278,102082
23153,102208
22989,102276
22811,102276
22647,102208
22521,102083
22453,101919
22453,101741
22521,101577
22646,101451
22810,101383
22988,101383
23152,101451
23278,101576
23346,101740
23346,101918
23346,101051
22346,101051
22346,101918
22278,102082
22153,102208
21989,102276
21811,102276
21647,102208
21521,102083
21453,101919
21453,101741
21521,101577
21646,101451
21810,101383
21988,101383
22152,101451
22278,101576
22346,101740
22346,101918
22346,101051
21991,101051
21333,101709
21346,101740
21346,101918
21278,102082
21153,102208
20989,102276
20811,102276
20647,102208
20521,102083
20453,101919
20453,101741
20521,101577
20646,101451
20810,101383
20988,101383
21020,101396
21743,100673
21815,100625
21900,100608
24728,100608
24728,100496
24754,100433
24802,100384
24865,100358
24933,100358
25533,100358
25596,100384
25645,100432
25671,100495
25671,100563
25671,99923
25599,100096
25467,100229
25294,100301
25106,100301
24933,100229
24800,100097
24781,100051
21900,100051
21815,100034
21743,99986
21033,99276
20591,99276
20528,99250
20479,99202
20453,99139
20453,99071
20453,98521
20479,98458
20527,98409
20590,98383
20658,98383
20678,98383
20678,98305
20695,98220
20743,98148
20828,98063
20828,97721
20854,97658
20902,97609
20965,97583
21033,97583
21328,97583
21328,97580
21345,97495
21393,97423
21493,97323
21565,97275
21650,97258
22250,97258
22334,97275
22406,97323
22453,97370
22453,97096
22479,97033
22527,96984
22590,96958
22658,96958
22678,96958
22678,96955
22678,96930
22678,95768
22672,95775
22609,95801
22571,95801
22571,96430
22554,96514
22506,96586
22306,96786
22234,96834
22150,96851
20150,96851
20065,96834
19993,96786
19993,96786
19993,96786
19958,96751
19466,96751
19403,96725
19354,96677
19328,96614
19328,96546
19328,96501
18391,96501
18378,96532
18253,96658
18089,96726
17911,96726
17747,96658
17621,96533
17553,96369
17553,96296
17343,96086
17295,96014
17278,95930
17278,89730
17295,89645
17343,89573
17553,89363
17553,88921
17579,88858
17627,88809
17690,88783
17758,88783
18308,88783
18371,88809
18420,88857
18446,88920
18446,88988
18446,89538
18420,89601
18372,89650
18309,89676
18241,89676
17866,89676
17721,89821
17721,92792
17727,92769
17924,92700
18132,92711
18272,92769
18297,92862
18000,93159
17994,93153
17923,93224
17929,93230
17923,93235
17994,93306
18000,93300
18297,93597
18272,93690
18079,93758
18132,93761
18272,93819
18297,93912
18000,94209
17994,94203
17923,94274
17929,94280
17923,94285
17994,94356
18000,94350
18297,94647
18272,94740
18075,94809
17867,94798
17727,94740
17721,94717
17721,95838
17773,95890
17910,95833
18088,95833
18252,95901
18378,96026
18391,96058
19328,96058
19328,95946
19354,95883
19402,95834
19465,95808
19533,95808
19626,95808
19512,95761
19484,95665
19800,95350
20115,95665
20087,95761
19954,95808
20133,95808
20196,95834
20245,95882
20271,95945
20271,96013
20271,96408
22058,96408
22128,96338
22128,95801
22091,95801
22028,95775
21979,95727
21953,95664
21953,95596
21953,95396
21979,95333
22027,95284
22039,95280
22028,95275
22004,95251
21050,95251
20965,95234
20893,95186
20893,95186
20893,95186
20354,94647
20354,95198
20343,95416
20281,95567
20185,95595
19870,95280
20185,94964
20281,94992
20354,95198
20354,94647
20215,94508
20199,94546
20067,94679
19931,94735
19936,94736
20087,94798
20115,94894
19800,95209
19729,95138
19729,95280
19414,95595
19318,95567
19245,95361
19256,95143
19318,94992
19414,94964
19729,95280
19729,95138
19484,94894
19512,94798
19678,94739
19533,94679
19400,94547
19328,94374
19328,94186
19400,94013
19532,93880
19705,93808
19893,93808
20066,93880
20199,94012
20218,94058
20300,94058
20384,94075
20456,94123
21141,94808
22004,94808
22027,94784
22039,94780
22028,94775
21979,94727
21953,94664
21953,94596
21953,94396
21979,94333
22027,94284
22039,94280
22028,94275
21979,94227
21953,94164
21953,94096
21953,93896
21979,93833
22027,93784
22039,93780
22028,93775
21979,93727
21953,93664
21953,93596
21953,93396
21979,93333
22027,93284
22039,93280
22028,93275
21979,93227
21953,93164
21953,93096
21953,92896
21979,92833
22027,92784
22039,92780
22028,92775
22004,92751
21241,92751
20556,93436
20484,93484
20400,93501
20218,93501
20199,93546
20067,93679
19894,93751
19706,93751
19533,93679
19400,93547
19328,93374
19328,93186
19400,93013
19532,92880
19705,92808
19893,92808
20066,92880
20199,93012
20218,93058
20308,93058
20993,92373
20993,92373
21065,92325
21065,92325
21149,92308
21150,92308
22004,92308
22027,92284
22090,92258
22158,92258
22608,92258
22671,92284
22703,92316
22703,91121
22653,91100
22604,91052
22578,90989
22578,90921
22578,90371
22604,90308
22652,90259
22715,90233
22783,90233
23133,90233
23145,90238
23020,90113
22989,90126
22811,90126
22647,90058
22521,89933
22453,89769
22453,89591
22521,89427
22646,89301
22810,89233
22983,89233
23790,88426
23466,88426
22333,89559
22346,89590
22346,89768
22278,89932
22153,90058
22121,90071
22121,90233
22383,90233
22446,90259
22495,90307
22521,90370
22521,90438
22521,90988
22495,91051
22478,91068
22493,91083
22546,91210
22546,91348
22493,91475
22464,91504
22493,91533
22546,91660
22546,91798
22493,91925
22396,92023
22269,92076
22131,92076
22004,92023
21981,92001
21041,92001
20606,92436
20534,92484
20450,92501
20218,92501
20199,92546
20067,92679
19894,92751
19706,92751
19533,92679
19400,92547
19328,92374
19328,92186
19400,92013
19532,91880
19705,91808
19893,91808
20066,91880
20199,92012
20218,92058
20358,92058
20793,91623
20865,91575
20950,91558
21896,91558
21906,91534
21935,91505
21931,91501
20218,91501
20199,91546
20067,91679
19894,91751
19706,91751
19533,91679
19400,91547
19328,91374
19328,91186
19400,91013
19532,90880
19705,90808
19893,90808
20066,90880
20199,91012
20218,91058
21861,91058
21854,91052
21828,90989
21828,90921
21828,90646
21743,90561
21695,90489
21678,90405
21678,90071
21647,90058
21521,89933
21453,89769
21453,89591
21521,89427
21646,89301
21810,89233
21988,89233
22020,89246
23218,88048
23290,88000
23375,87983
24458,87983
24472,87951
21346,87951
21346,89768
21278,89932
21153,90058
20989,90126
20811,90126
20647,90058
20521,89933
20508,89901
19850,89901
19765,89884
19693,89836
19439,89582
19394,89601
19206,89601
19033,89529
18900,89397
18828,89224
18828,89036
18900,88863
19032,88730
19205,88658
19393,88658
19566,88730
19699,88862
19771,89035
19771,89223
19752,89269
19941,89458
20508,89458
20521,89427
20646,89301
20810,89233
20988,89233
21152,89301
21278,89426
21346,89590
21346,89768
21346,87951
19791,87951
19752,87990
19771,88035
19771,88223
19699,88396
19567,88529
19394,88601
19206,88601
19033,88529
18900,88397
18828,88224
18828,88036
18900,87863
19032,87730
19205,87658
19393,87658
19439,87677
19515,87601
18966,87601
18903,87575
18854,87527
18828,87464
18828,87396
18828,86796
18854,86733
18902,86684
18965,86658
19033,86658
19633,86658
19696,86684
19745,86732
19771,86795
19771,86863
19771,86908
20511,86908
20453,86769
20453,86591
20521,86427
20646,86301
20810,86233
20988,86233
21152,86301
21278,86426
21346,86590
21346,86768
21288,86908
21511,86908
21453,86769
21453,86591
21521,86427
21646,86301
21810,86233
21988,86233
22152,86301
22278,86426
22346,86590
22346,86768
22288,86908
22511,86908
22453,86769
22453,86591
22521,86427
22646,86301
22810,86233
22988,86233
23152,86301
23278,86426
23346,86590
23346,86768
23288,86908
23358,86908
23466,86800
23453,86769
23453,86591
23521,86427
23646,86301
23810,86233
23988,86233
24152,86301
24278,86426
24346,86590
24346,86768
24278,86932
24153,87058
23989,87126
23811,87126
23779,87113
23606,87286
23534,87334
23450,87351
19771,87351
19771,87463
19752,87508
25600,87508
25684,87525
25756,87573
26206,88023
26227,88054
26312,88055
26375,88117
26375,88530
26367,88530
26367,88630
26375,88630
26375,89042
26312,89105
26256,89105
26254,89114
26206,89186
25556,89836
25485,89883
25533,89883
25883,89883
25946,89909
25995,89957
26021,90020
26021,90088
26021,90363
26303,90645
26303,90630
26305,90619
26303,90614
26303,90546
26303,90196
26329,90133
26377,90084
26440,90058
26508,90058
27058,90058
27121,90084
27170,90132
27196,90195
27196,90263
27196,90613
27170,90676
27122,90725
27059,90751
26991,90751
26746,90751
26746,91088
26796,91109
26845,91157
26871,91220
26871,91288
26871,91308
27308,91308
27321,91277
27446,91151
27610,91083
27788,91083
27952,91151
28078,91276
28146,91440
28146,91618
28078,91782
27953,91908
27789,91976
27611,91976
27447,91908
27321,91783
27308,91751
26871,91751
26871,91838
26845,91901
26797,91950
26734,91976
26666,91976
26346,91976
26306,92036
26156,92186
26117,92212
26121,92220
26121,92288
26121,92838
26095,92901
26047,92950
25992,92972
25979,93039
25931,93111
25359,93683
25633,93683
25696,93709
25745,93757
25771,93820
25771,93888
25771,94438
25745,94501
25697,94550
25634,94576
25566,94576
25291,94576
25181,94686
25109,94734
25025,94751
24795,94751
24772,94775
24760,94779
24771,94784
24820,94832
24846,94895
24846,94963
24846,95163
24821,95223
24887,95288
24925,95380
24925,95679
24887,95771
24816,95841
24724,95879
24625,95880
24562,95880
24500,95817
24500,95580
24862,95580
24925,95642
24925,95679
24925,95380
24925,95417
24862,95480
24500,95480
24500,95472
24400,95472
24400,95480
24392,95480
24392,95580
24400,95580
24400,95817
24337,95880
24274,95880
24175,95879
24121,95857
24121,96608
24208,96608
24271,96634
24320,96682
24346,96745
24346,96813
24346,97070
24828,96588
24828,96055
24845,95970
24893,95898
25828,94963
25828,94621
25854,94558
25882,94529
25854,94502
25828,94439
25828,94371
25828,93821
25854,93758
25902,93709
25965,93683
26033,93683
26383,93683
26446,93709
26469,93732
26483,93718
26557,93687
26528,93675
26479,93627
26453,93564
26453,93496
26453,93146
26479,93083
26527,93034
26590,93008
26658,93008
26678,93008
26678,92996
26658,92976
26316,92976
26253,92950
26204,92902
26178,92839
26178,92771
26178,92221
26204,92158
26252,92109
26315,92083
26383,92083
26733,92083
26796,92109
26845,92157
26871,92220
26871,92288
26871,92308
27150,92308
27308,92308
27321,92277
27446,92151
27610,92083
27788,92083
27952,92151
28078,92276
28146,92440
28146,92618
28078,92782
27953,92908
27789,92976
27611,92976
27447,92908
27321,92783
27308,92751
27150,92751
27058,92751
27104,92820
27121,92905
27121,93008
27208,93008
27271,93034
27320,93082
27330,93108
27390,93083
27458,93083
27833,93083
28478,92438
28478,89698
28433,89679
28300,89547
28228,89374
28228,89186
28247,89140
28008,88901
27987,88901
28099,89012
28171,89185
28171,89373
28099,89546
27967,89679
27921,89698
27921,90138
27952,90151
28078,90276
28146,90440
28146,90618
28078,90782
27953,90908
27789,90976
27611,90976
27447,90908
27321,90783
27253,90619
27253,90441
27321,90277
27446,90151
27478,90138
27478,89698
27433,89679
27300,89547
27228,89374
27228,89264
27140,89352
27170,89382
27196,89445
27196,89513
27196,89863
27170,89926
27122,89975
27059,90001
26991,90001
26441,90001
26378,89975
26329,89927
26303,89864
26303,89796
26303,89446
26329,89383
26377,89334
26440,89308
26508,89308
26570,89308
26593,89273
27343,88523
27343,88523
27415,88475
27415,88475
27499,88458
27500,88458
28100,88458
28184,88475
28256,88523
28560,88827
28605,88808
28793,88808
28966,88880
29099,89012
29171,89185
29171,89373
29099,89546
28967,89679
28921,89698
28921,92530
28904,92614
28856,92686
28146,93396
28146,93838
28120,93901
28072,93950
28009,93976
27941,93976
27425,93976
27425,93992
27362,94055
26950,94055
26950,94047
26850,94047
26850,94055
26842,94055
26842,94155
26850,94155
26850,94162
26950,94162
26950,94155
27362,94155
27425,94217
27425,94329
27387,94421
27316,94491
27224,94529
27217,94529
27245,94557
27271,94620
27271,94649
27321,94527
27446,94401
27610,94333
27788,94333
27952,94401
28078,94526
28146,94690
28146,94868
28133,94900
29906,96673
29954,96745
29971,96830
29971,98658
29983,98658
30028,98658
30028,98230
30045,98145
30093,98073
30266,97900
30253,97869
30253,97691
30321,97527
30446,97401
30610,97333
30788,97333
30952,97401
31078,97526
31146,97690
31146,97868
31146,96868
31078,97032
30953,97158
30789,97226
30611,97226
30447,97158
30321,97033
30253,96869
30253,96691
30321,96527
30446,96401
30610,96333
30788,96333
30952,96401
31078,96526
31146,96690
31146,96868
31146,95868
31078,96032
30953,96158
30789,96226
30611,96226
30447,96158
30321,96033
30253,95869
30253,95691
30321,95527
30446,95401
30610,95333
30788,95333
30952,95401
31078,95526
31146,95690
31146,95868
31146,94868
31078,95032
30953,95158
30789,95226
30611,95226
30447,95158
30321,95033
30253,94869
30253,94691
30321,94527
30446,94401
30610,94333
30788,94333
30952,94401
31078,94526
31146,94690
31146,94868
31146,93618
31078,93782
30953,93908
30789,93976
30611,93976
30447,93908
30321,93783
30253,93619
30253,93441
30266,93409
29543,92686
29495,92614
29478,92530
29478,89751
29366,89751
29303,89725
29254,89677
29228,89614
29228,89546
29228,88946
29254,88883
29302,88834
29365,88808
29433,88808
30033,88808
30096,88834
30145,88882
30171,88945
30171,89013
30171,89613
30145,89676
30097,89725
30034,89751
29966,89751
29921,89751
29921,92438
30579,93096
30610,93083
30788,93083
30952,93151
31078,93276
31146,93440
31146,93618
31146,92618
31078,92782
30953,92908
30789,92976
30611,92976
30447,92908
30321,92783
30253,92619
30253,92441
30321,92277
30446,92151
30610,92083
30788,92083
30952,92151
31078,92276
31146,92440
31146,92618
31146,91618
31078,91782
30953,91908
30789,91976
30611,91976
30447,91908
30321,91783
30253,91619
30253,91441
30321,91277
30446,91151
30610,91083
30788,91083
30952,91151
31078,91276
31146,91440
31146,91618
31146,90618
31078,90782
30953,90908
30789,90976
30611,90976
30447,90908
30321,90783
30253,90619
30253,90441
30321,90277
30446,90151
30610,90083
30788,90083
30952,90151
31078,90276
31146,90440
31146,90618
31146,87574
27215,87574
27215,86483
31724,86483
31724,86030
26850,86030
26850,88354
26850,88805
26849,88904
26811,88996
26741,89067
26649,89105
26537,89105
26475,89042
26475,88630
26787,88630
26850,88692
26850,88805
26850,88354
26850,88467
26787,88530
26475,88530
26475,88117
26537,88055
26649,88054
26741,88092
26811,88163
26849,88255
26850,88354
26850,86030
18529,86030
18529,93154
18529,94204
18518,94412
18460,94552
18367,94577
18070,94280
18367,93982
18460,94007
18529,94204
18529,93154
18518,93362
18460,93502
18367,93527
18070,93230
18367,92932
18460,92957
18529,93154
18529,86030
17250,86030
17250,102680
17300,102680
17350,102680
17600,102680
32050,102680
32050,86730
32050,86030
" /> 
</g>
<g style="fill:#FFFFFF; fill-opacity:0.0; 
stroke:#FFFFFF; stroke-width:39.3701; stroke-opacity:1; 
stroke-linecap:round; stroke-linejoin:round;">
</g>
<g style="fill:#FFFFFF; fill-opacity:1.0; 
stroke:#FFFFFF; stroke-width:39.3701; stroke-opacity:1; 
stroke-linecap:round; stroke-linejoin:round;">
<circle cx="24200" cy="91280" r="105.315" /> 
<circle cx="22200" cy="91280" r="105.315" /> 
<circle cx="22200" cy="91730" r="105.315" /> 
<circle cx="24200" cy="91730" r="105.315" /> 
<circle cx="25200" cy="100830" r="180.315" /> 
<circle cx="25200" cy="99830" r="180.315" /> 
<circle cx="25200" cy="98830" r="180.315" /> 
<circle cx="30250" cy="99130" r="180.315" /> 
<circle cx="29250" cy="99130" r="180.315" /> 
<circle cx="28250" cy="99130" r="180.315" /> 
<circle cx="19300" cy="87130" r="180.315" /> 
<circle cx="19300" cy="88130" r="180.315" /> 
<circle cx="19300" cy="89130" r="180.315" /> 
<circle cx="29700" cy="89280" r="180.315" /> 
<circle cx="28700" cy="89280" r="180.315" /> 
<circle cx="27700" cy="89280" r="180.315" /> 
<circle cx="19800" cy="96280" r="180.315" /> 
<circle cx="19800" cy="95280" r="180.315" /> 
<circle cx="19800" cy="94280" r="180.315" /> 
<circle cx="19800" cy="93280" r="180.315" /> 
<circle cx="19800" cy="92280" r="180.315" /> 
<circle cx="19800" cy="91280" r="180.315" /> 
<circle cx="27700" cy="93530" r="140.315" /> 
<circle cx="27700" cy="92530" r="140.315" /> 
<circle cx="27700" cy="91530" r="140.315" /> 
<circle cx="27700" cy="90530" r="140.315" /> 
<circle cx="30700" cy="90530" r="140.315" /> 
<circle cx="30700" cy="91530" r="140.315" /> 
<circle cx="30700" cy="92530" r="140.315" /> 
<circle cx="30700" cy="93530" r="140.315" /> 
<circle cx="27700" cy="97780" r="140.315" /> 
<circle cx="27700" cy="96780" r="140.315" /> 
<circle cx="27700" cy="95780" r="140.315" /> 
<circle cx="27700" cy="94780" r="140.315" /> 
<circle cx="30700" cy="94780" r="140.315" /> 
<circle cx="30700" cy="95780" r="140.315" /> 
<circle cx="30700" cy="96780" r="140.315" /> 
<circle cx="30700" cy="97780" r="140.315" /> 
<circle cx="23900" cy="89680" r="140.315" /> 
<circle cx="22900" cy="89680" r="140.315" /> 
<circle cx="21900" cy="89680" r="140.315" /> 
<circle cx="20900" cy="89680" r="140.315" /> 
<circle cx="20900" cy="86680" r="140.315" /> 
<circle cx="21900" cy="86680" r="140.315" /> 
<circle cx="22900" cy="86680" r="140.315" /> 
<circle cx="23900" cy="86680" r="140.315" /> 
<circle cx="20900" cy="98830" r="140.315" /> 
<circle cx="21900" cy="98830" r="140.315" /> 
<circle cx="22900" cy="98830" r="140.315" /> 
<circle cx="23900" cy="98830" r="140.315" /> 
<circle cx="23900" cy="101830" r="140.315" /> 
<circle cx="22900" cy="101830" r="140.315" /> 
<circle cx="21900" cy="101830" r="140.315" /> 
<circle cx="20900" cy="101830" r="140.315" /> 
<circle cx="18000" cy="89230" r="140.315" /> 
<circle cx="18000" cy="93230" r="140.315" /> 
<circle cx="18000" cy="96280" r="140.315" /> 
<circle cx="18000" cy="94280" r="140.315" /> 
</g> 
</svg>
